<?xml version="1.0" encoding="UTF-8"?>
<svg version="1.1" xmlns="http://www.w3.org/2000/svg" width="512" height="512">
    <style>
        path { fill: grey; }
    </style>
    <path d="M0 0 C19.58180252 0.38284644 45.34624787 8.61757074 59.21972656 22.75219727 C62.05228888 26.50042172 63.04469886 30.65978452 62.46972656 35.31469727 C60.55556411 39.99376105 57.90974973 43.27930331 54.53222656 47.00219727 C44.60339724 58.41417122 44.31468283 70.65307599 44.33691406 85.10766602 C44.33589748 86.4813642 44.33455748 87.85506218 44.33291626 89.22875977 C44.33022588 92.89641789 44.3346644 96.56403347 44.34115601 100.23168564 C44.34472562 102.50159583 44.34634469 104.7714997 44.34741211 107.04141235 C44.36208626 132.14224759 44.69576546 157.22477202 45.46972656 182.31469727 C46.21206543 182.15388672 46.9544043 181.99307617 47.71923828 181.82739258 C65.22744347 178.05854509 82.71296498 174.72159059 100.46972656 172.31469727 C101.19248779 172.21084717 101.91524902 172.10699707 102.65991211 172 C109.32711314 171.13355242 116.01771328 171.05892137 122.73413086 171.01953125 C124.0942628 171.00801982 125.45434985 170.98758062 126.81420898 170.95800781 C143.02368572 170.60745854 155.86182754 174.93061754 167.78222656 186.12719727 C173.94911227 192.63598423 179.73998475 201.23098304 179.78222656 210.43969727 C179.79898437 211.28790039 179.81574219 212.13610352 179.83300781 213.01000977 C179.46972656 215.31469727 179.46972656 215.31469727 178.38769531 217.05688477 C172.79010338 220.72781064 164.40506123 219.3645538 158.03222656 219.12719727 C156.86079102 219.08530273 155.68935547 219.0434082 154.48242188 219.00024414 C138.79162524 218.33221623 123.15163591 216.87980989 107.5096283 215.51086426 C93.8884519 214.3212578 80.27851211 213.13792124 66.59472656 213.12719727 C65.74910156 213.11495117 64.90347656 213.10270508 64.03222656 213.09008789 C57.5343578 213.07518452 50.37943089 213.3598451 44.46972656 216.31469727 C44.4594191 217.58762131 44.44911163 218.86054535 44.43849182 220.17204285 C44.33874581 232.44354117 44.23590911 244.71501064 44.13038731 256.98646069 C44.07628792 263.28832618 44.0231105 269.590196 43.97241211 275.89208984 C43.75598804 302.70043527 43.48066864 329.50597679 42.98535156 356.31079102 C42.96586016 357.39834372 42.94636875 358.48589642 42.9262867 359.60640526 C41.29215447 449.48314152 41.29215447 449.48314152 22.46972656 469.31469727 C20.26269531 470.08032227 20.26269531 470.08032227 18.46972656 470.31469727 C1.55595669 447.11867002 3.19532519 410.9730306 3.09082031 383.66235352 C3.07484306 381.32999572 3.05797484 378.99764388 3.0402832 376.66529846 C3.00460606 371.76005727 2.97424075 366.85482702 2.94845581 361.94952393 C2.88800808 350.49863342 2.80059567 339.04793209 2.71611214 327.59719849 C2.68858129 323.82513938 2.66214755 320.05307373 2.635849 316.28100586 C2.48016337 294.40153006 2.17499342 272.5270883 1.77416992 250.65087891 C1.73372603 248.42684211 1.69343494 246.20280253 1.65332031 243.97875977 C1.63494614 242.96597458 1.61657196 241.95318939 1.59764099 240.90971375 C1.44042199 231.71099486 1.42625989 222.5144533 1.46972656 213.31469727 C-6.03515597 213.64318498 -13.53951705 213.98203417 -21.04339409 214.33271503 C-24.53101656 214.49540672 -28.01871227 214.65504209 -31.50683594 214.80664062 C-45.76449445 215.42860302 -59.97478712 216.1850993 -74.16308594 217.79516602 C-75.22888885 217.91483231 -76.29469177 218.0344986 -77.39279175 218.15779114 C-84.67140337 218.94651915 -84.67140337 218.94651915 -91.53027344 221.31469727 C-92.46352605 224.01233338 -92.70028534 226.6497202 -92.85571289 229.48706055 C-92.90296509 230.30470383 -92.95021729 231.12234711 -92.99890137 231.96476746 C-93.07050476 233.2865374 -93.07050476 233.2865374 -93.14355469 234.63500977 C-93.25515642 236.53927139 -93.36757429 238.44348532 -93.48071289 240.34765625 C-93.56852524 241.84049637 -93.56852524 241.84049637 -93.65811157 243.36349487 C-96.18861181 285.51800721 -101.82950257 328.56079498 -129.53027344 362.31469727 C-130.10261719 363.03915039 -130.67496094 363.76360352 -131.26464844 364.51000977 C-135.26523206 369.3678613 -139.87354699 373.20086314 -144.79199219 377.10766602 C-147.18981964 379.04029442 -149.45658152 381.03894546 -151.71777344 383.12719727 C-166.47306655 396.35698771 -191.62097684 418.67520238 -212.53027344 418.31469727 C-213.19027344 417.98469727 -213.85027344 417.65469727 -214.53027344 417.31469727 C-214.16152552 411.24352626 -212.99910359 407.64554323 -209.03027344 402.93969727 C-208.35532837 402.10136353 -208.35532837 402.10136353 -207.66674805 401.24609375 C-204.22255973 397.01328004 -200.56607234 392.98018798 -196.87402344 388.96313477 C-192.64588753 384.18534119 -188.78360565 379.1198851 -184.89013672 374.06860352 C-183.60472422 372.4107214 -182.30329207 370.76714453 -180.99511719 369.12719727 C-150.33781905 330.25899044 -130.81899808 284.29941432 -135.98339844 234.17016602 C-136.37615993 230.86255316 -136.9469382 227.59366499 -137.53027344 224.31469727 C-154.32964152 227.95627108 -170.56221408 232.95579551 -186.90527344 238.25219727 C-246.04174264 257.38665551 -246.04174264 257.38665551 -260.31152344 250.99047852 C-270.81340629 245.52287203 -284.62159067 237.04074558 -288.53027344 225.31469727 C-288.96777344 222.12719727 -288.96777344 222.12719727 -288.53027344 219.31469727 C-285.23866434 215.95936958 -281.38053106 215.46277348 -276.91308594 214.80297852 C-276.12990997 214.68054276 -275.34673401 214.55810699 -274.53982544 214.43196106 C-263.21044241 212.72966558 -251.80141832 211.64531844 -240.40527344 210.50219727 C-237.89483733 210.24628442 -235.38442109 209.99017659 -232.87402344 209.73388672 C-206.57758328 207.06494348 -180.26011998 204.60926542 -153.93972778 202.1895752 C-147.46685336 201.59332597 -140.99706472 200.97378011 -134.53027344 200.31469727 C-134.48000588 195.0717908 -134.4441539 189.8290313 -134.42041016 184.5859375 C-134.41048895 182.81052195 -134.39694772 181.03512212 -134.37939453 179.25976562 C-133.49470735 152.58253142 -133.49470735 152.58253142 -142.53027344 128.31469727 C-142.86027344 127.98469727 -143.19027344 127.65469727 -143.53027344 127.31469727 C-151.14814527 127.65032072 -157.46068536 129.90211547 -164.53027344 132.62719727 C-195.50792508 144.16038723 -195.50792508 144.16038723 -207.34277344 140.00219727 C-208.07109375 139.75856445 -208.79941406 139.51493164 -209.54980469 139.26391602 C-211.71994159 138.22379123 -213.01350436 137.1759691 -214.53027344 135.31469727 C-214.53027344 134.65469727 -214.53027344 133.99469727 -214.53027344 133.31469727 C-213.7669873 132.97849365 -213.00370117 132.64229004 -212.21728516 132.29589844 C-162.61693279 110.58926327 -162.61693279 110.58926327 -119.53027344 78.31469727 C-118.56154297 77.44071289 -118.56154297 77.44071289 -117.57324219 76.54907227 C-110.76250952 70.19832372 -104.8940198 61.6545793 -104.42089844 52.10766602 C-104.40736929 50.17637967 -104.46254902 48.24484321 -104.53027344 46.31469727 C-99.00313943 43.18684188 -93.59824651 43.48311509 -87.56152344 45.11938477 C-78.1838642 48.62392237 -70.48351447 54.31646692 -65.40527344 63.06469727 C-62.48857847 69.73884269 -62.33377558 76.89634484 -64.22949219 83.89672852 C-65.15831555 86.19723194 -66.21656601 88.21193914 -67.53027344 90.31469727 C-67.91957031 90.93989258 -68.30886719 91.56508789 -68.70996094 92.20922852 C-75.30725954 101.16828195 -85.99069614 103.78911788 -96.42382812 105.40673828 C-97.8251359 105.6145107 -99.22681751 105.81978151 -100.62890625 106.0222168 C-104.30826284 106.58819897 -107.90977116 107.45894218 -111.53027344 108.31469727 C-112.48529502 110.03946638 -112.48529502 110.03946638 -112.53027344 112.31469727 C-109.00430965 116.84404153 -104.79439575 118.92306312 -99.71777344 121.25219727 C-84.41352305 128.6049707 -84.41352305 128.6049707 -80.53027344 136.31469727 C-78.47334778 146.58338041 -82.85944873 155.97153017 -86.53027344 165.31469727 C-87.37624323 167.52819772 -88.2147716 169.74432679 -89.04931641 171.9621582 C-89.5644152 173.32709075 -90.0852499 174.68987754 -90.61279297 176.05004883 C-92.65594499 181.38085608 -93.6687671 185.92767233 -93.59277344 191.62719727 C-93.58375 192.51020508 -93.57472656 193.39321289 -93.56542969 194.30297852 C-93.55382812 194.9668457 -93.54222656 195.63071289 -93.53027344 196.31469727 C-92.70062073 196.15771866 -91.87096802 196.00074005 -91.01617432 195.83900452 C-87.257759 195.27370892 -83.547542 195.05798753 -79.75585938 194.92578125 C-79.00051407 194.89637451 -78.24516876 194.86696777 -77.4669342 194.83666992 C-74.98296572 194.7409502 -72.49883122 194.65076317 -70.01464844 194.56079102 C-68.27596995 194.49524217 -66.53730228 194.42940607 -64.79864502 194.36329651 C-61.15735174 194.22565105 -57.51597514 194.0905865 -53.87451172 193.95751953 C-49.23008029 193.78772377 -44.58585487 193.6129231 -39.94167709 193.43633938 C-36.35043962 193.30011654 -32.75912995 193.16588458 -29.16779327 193.03230476 C-27.45673214 192.96855966 -25.74568739 192.90437317 -24.03466034 192.83971977 C-21.63059442 192.74931969 -19.22644906 192.66143052 -16.82226562 192.57421875 C-16.12893631 192.54773758 -15.43560699 192.52125641 -14.7212677 192.49397278 C-9.32331297 192.30218726 -3.93126902 192.28870675 1.46972656 192.31469727 C1.73258786 174.84937286 1.99345202 157.38401988 2.25202942 139.91863155 C2.37217447 131.80658012 2.49293866 123.69453885 2.61523438 115.58251953 C2.72200108 108.5004477 2.82753084 101.41835862 2.93166065 94.3362475 C2.98668162 90.59692794 3.04226374 86.85761888 3.09933472 83.11833 C3.12117668 81.68166512 3.14299701 80.2449999 3.16479492 78.80833435 C3.17542811 78.10966411 3.18606131 77.41099387 3.19701672 76.6911518 C3.26698494 72.01301751 3.32250593 67.33485027 3.37353516 62.65646362 C3.42595282 57.93263574 3.52346512 53.21372676 3.66357422 48.49172974 C3.70729861 46.433457 3.75077268 44.37517892 3.79394531 42.31689453 C3.85117516 40.96018725 3.85117516 40.96018725 3.90956116 39.57607174 C4.04490421 30.79546525 -0.04297047 25.51749304 -5.35498047 18.9152832 C-8.54711541 14.56803836 -10.87508798 8.97469519 -10.17480469 3.57250977 C-8.76604494 -1.36241832 -4.50156981 0.00487183 0 0 Z " transform="translate(310.5302734375,21.685302734375)"/>
</svg>
